<?xml version="1.0" encoding="UTF-8" standalone="no"?>
<!DOCTYPE svg PUBLIC "-//W3C//DTD SVG 1.1//EN" "http://www.w3.org/Graphics/SVG/1.1/DTD/svg11.dtd">
<svg version="1.1" xmlns="http://www.w3.org/2000/svg" xmlns:xlink="http://www.w3.org/1999/xlink" preserveAspectRatio="xMidYMid meet" viewBox="0 0 640 640" width="640" height="640"><defs><path d="M639.93 0L639.93 315.58C640.63 328.63 636.07 335.49 626.25 336.18C616.42 336.86 611.86 331.03 612.56 318.67C607.65 269.94 596.42 243.85 578.88 240.42C561.33 236.99 555.02 278.52 559.93 365.01C559.93 378.05 555.02 384.23 545.19 383.54C535.37 382.85 529.75 376.67 528.35 365.01C529.75 316.27 517.47 292.24 491.51 292.93C465.54 293.62 456.07 359.17 463.09 489.59C463.09 508.81 453.61 518.42 434.67 518.42C406.25 518.42 407.3 492.68 407.3 489.59C407.3 486.5 416.77 298.08 376.77 292.93C350.11 289.5 338.53 314.9 342.04 369.12C340.63 385.6 333.26 395.21 319.93 397.95C299.93 402.07 277.82 390.75 274.67 369.12C271.51 347.5 278.88 294.99 244.14 292.93C220.98 291.56 209.75 343.73 210.46 449.44C211.16 459.73 205.89 464.54 194.67 463.85C183.44 463.16 178.18 458.36 178.88 449.44C182.39 374.62 175.72 336.86 158.88 336.18C142.04 335.49 133.26 360.89 132.56 412.37C134.67 428.16 128.35 436.39 113.61 437.08C98.88 437.77 92.21 429.53 93.61 412.37C92.91 322.45 80.98 273.71 57.82 266.16C34.67 258.61 15.37 272.68 -0.07 308.38L2.04 0L639.93 0Z" id="a1jHvJ2jrm"></path><linearGradient id="gradienta4h0mfez2" gradientUnits="userSpaceOnUse" x1="319.96" y1="0" x2="319.96" y2="518.42"><stop style="stop-color: #6e6e6e;stop-opacity: 0" offset="0%"></stop><stop style="stop-color: #010000;stop-opacity: 1" offset="100%"></stop></linearGradient></defs><g><g><g><g></g><use xlink:href="#a1jHvJ2jrm" opacity="1" fill="url(#gradienta4h0mfez2)"></use><g><use xlink:href="#a1jHvJ2jrm" opacity="1" fill-opacity="0" stroke="#ffffff" stroke-width="1" stroke-opacity="0"></use></g></g></g></g></svg>